<svg width="211" height="69" viewBox="0 0 211 69" fill="none" xmlns="http://www.w3.org/2000/svg">
<path d="M60.63 47.24C59.03 47.24 57.54 46.97 56.16 46.43C54.8 45.89 53.62 45.14 52.62 44.18C51.62 43.2 50.84 42.06 50.28 40.76C49.72 39.46 49.44 38.04 49.44 36.5C49.44 34.96 49.72 33.54 50.28 32.24C50.84 30.94 51.62 29.81 52.62 28.85C53.62 27.87 54.8 27.11 56.16 26.57C57.52 26.03 59.01 25.76 60.63 25.76C62.23 25.76 63.7 26.03 65.04 26.57C66.4 27.09 67.58 27.84 68.58 28.82C69.6 29.78 70.38 30.91 70.92 32.21C71.48 33.51 71.76 34.94 71.76 36.5C71.76 38.06 71.48 39.49 70.92 40.79C70.38 42.09 69.6 43.23 68.58 44.21C67.58 45.17 66.4 45.92 65.04 46.46C63.7 46.98 62.23 47.24 60.63 47.24ZM60.63 44.57C61.79 44.57 62.86 44.37 63.84 43.97C64.84 43.57 65.7 43.01 66.42 42.29C67.16 41.55 67.73 40.69 68.13 39.71C68.55 38.73 68.76 37.66 68.76 36.5C68.76 35.34 68.55 34.27 68.13 33.29C67.73 32.31 67.16 31.46 66.42 30.74C65.7 30 64.84 29.43 63.84 29.03C62.86 28.63 61.79 28.43 60.63 28.43C59.45 28.43 58.36 28.63 57.36 29.03C56.38 29.43 55.52 30 54.78 30.74C54.04 31.46 53.46 32.31 53.04 33.29C52.64 34.27 52.44 35.34 52.44 36.5C52.44 37.66 52.64 38.73 53.04 39.71C53.46 40.69 54.04 41.55 54.78 42.29C55.52 43.01 56.38 43.57 57.36 43.97C58.36 44.37 59.45 44.57 60.63 44.57ZM85.4653 47.24C83.8653 47.24 82.3353 47 80.8753 46.52C79.4153 46.02 78.2653 45.38 77.4253 44.6L78.5353 42.26C79.3353 42.96 80.3553 43.54 81.5953 44C82.8353 44.46 84.1253 44.69 85.4653 44.69C86.6853 44.69 87.6753 44.55 88.4353 44.27C89.1953 43.99 89.7553 43.61 90.1153 43.13C90.4753 42.63 90.6553 42.07 90.6553 41.45C90.6553 40.73 90.4153 40.15 89.9353 39.71C89.4753 39.27 88.8653 38.92 88.1053 38.66C87.3653 38.38 86.5453 38.14 85.6453 37.94C84.7453 37.74 83.8353 37.51 82.9153 37.25C82.0153 36.97 81.1853 36.62 80.4253 36.2C79.6853 35.78 79.0853 35.22 78.6253 34.52C78.1653 33.8 77.9353 32.88 77.9353 31.76C77.9353 30.68 78.2153 29.69 78.7753 28.79C79.3553 27.87 80.2353 27.14 81.4153 26.6C82.6153 26.04 84.1353 25.76 85.9753 25.76C87.1953 25.76 88.4053 25.92 89.6053 26.24C90.8053 26.56 91.8453 27.02 92.7253 27.62L91.7353 30.02C90.8353 29.42 89.8853 28.99 88.8853 28.73C87.8853 28.45 86.9153 28.31 85.9753 28.31C84.7953 28.31 83.8253 28.46 83.0653 28.76C82.3053 29.06 81.7453 29.46 81.3853 29.96C81.0453 30.46 80.8753 31.02 80.8753 31.64C80.8753 32.38 81.1053 32.97 81.5653 33.41C82.0453 33.85 82.6553 34.2 83.3953 34.46C84.1553 34.72 84.9853 34.96 85.8853 35.18C86.7853 35.38 87.6853 35.61 88.5853 35.87C89.5053 36.13 90.3353 36.47 91.0753 36.89C91.8353 37.31 92.4453 37.87 92.9053 38.57C93.3653 39.27 93.5953 40.17 93.5953 41.27C93.5953 42.33 93.3053 43.32 92.7253 44.24C92.1453 45.14 91.2453 45.87 90.0253 46.43C88.8253 46.97 87.3053 47.24 85.4653 47.24ZM97.7981 47L107.308 26H110.278L119.818 47H116.668L108.178 27.68H109.378L100.888 47H97.7981ZM101.848 41.75L102.658 39.35H114.478L115.348 41.75H101.848Z" fill="#002B53"/>
<path d="M56.6619 57H55.9943C55.9446 56.7514 55.8546 56.5218 55.7244 56.3111C55.5966 56.098 55.4356 55.9122 55.2415 55.7536C55.0473 55.5949 54.8272 55.4718 54.581 55.3842C54.3348 55.2966 54.0684 55.2528 53.782 55.2528C53.3227 55.2528 52.9036 55.3724 52.5249 55.6115C52.1484 55.8506 51.8466 56.2022 51.6193 56.6662C51.3944 57.1278 51.282 57.6937 51.282 58.3636C51.282 59.0384 51.3944 59.6065 51.6193 60.0682C51.8466 60.5298 52.1484 60.8802 52.5249 61.1193C52.9036 61.3561 53.3227 61.4744 53.782 61.4744C54.0684 61.4744 54.3348 61.4306 54.581 61.343C54.8272 61.2554 55.0473 61.1335 55.2415 60.9773C55.4356 60.8187 55.5966 60.6328 55.7244 60.4197C55.8546 60.2067 55.9446 59.9759 55.9943 59.7273H56.6619C56.6027 60.0611 56.4915 60.3724 56.3281 60.6612C56.1671 60.9477 55.9612 61.1986 55.7102 61.4141C55.4616 61.6295 55.1752 61.7976 54.8509 61.9183C54.5265 62.0391 54.1702 62.0994 53.782 62.0994C53.1712 62.0994 52.629 61.9467 52.1555 61.6413C51.6821 61.3336 51.3104 60.9003 51.0405 60.3416C50.773 59.7829 50.6392 59.1236 50.6392 58.3636C50.6392 57.6037 50.773 56.9444 51.0405 56.3857C51.3104 55.8269 51.6821 55.3949 52.1555 55.0895C52.629 54.7817 53.1712 54.6278 53.782 54.6278C54.1702 54.6278 54.5265 54.6882 54.8509 54.8089C55.1752 54.9273 55.4616 55.0954 55.7102 55.3132C55.9612 55.5286 56.1671 55.7796 56.3281 56.0661C56.4915 56.3525 56.6027 56.6638 56.6619 57ZM65.1841 58.3636C65.1841 59.1212 65.0492 59.7805 64.7793 60.3416C64.5094 60.9003 64.1377 61.3336 63.6642 61.6413C63.1931 61.9467 62.651 62.0994 62.0378 62.0994C61.4247 62.0994 60.8813 61.9467 60.4078 61.6413C59.9367 61.3336 59.5662 60.9003 59.2963 60.3416C59.0288 59.7805 58.8951 59.1212 58.8951 58.3636C58.8951 57.6061 59.0288 56.9479 59.2963 56.3892C59.5662 55.8281 59.9379 55.3949 60.4114 55.0895C60.8849 54.7817 61.427 54.6278 62.0378 54.6278C62.651 54.6278 63.1931 54.7817 63.6642 55.0895C64.1377 55.3949 64.5094 55.8281 64.7793 56.3892C65.0492 56.9479 65.1841 57.6061 65.1841 58.3636ZM64.5378 58.3636C64.5378 57.7126 64.4289 57.1551 64.2111 56.6911C63.9933 56.2247 63.6962 55.8684 63.3198 55.6222C62.9434 55.3759 62.516 55.2528 62.0378 55.2528C61.562 55.2528 61.1358 55.3759 60.7594 55.6222C60.383 55.8684 60.0847 56.2235 59.8645 56.6875C59.6467 57.1515 59.5378 57.7102 59.5378 58.3636C59.5378 59.0147 59.6467 59.5722 59.8645 60.0362C60.0823 60.5002 60.3794 60.8565 60.7559 61.1051C61.1323 61.3513 61.5596 61.4744 62.0378 61.4744C62.516 61.4744 62.9434 61.3513 63.3198 61.1051C63.6986 60.8589 63.9969 60.5038 64.2147 60.0398C64.4325 59.5734 64.5402 59.0147 64.5378 58.3636ZM69.9208 62H67.7901V54.7273H70.0487C70.7423 54.7273 71.3353 54.8717 71.8278 55.1605C72.3226 55.4493 72.7013 55.8636 72.9641 56.4034C73.2269 56.9432 73.3583 57.5907 73.3583 58.3459C73.3583 59.1082 73.2234 59.7628 72.9535 60.3097C72.686 60.8542 72.2953 61.272 71.7816 61.5632C71.2702 61.8544 70.65 62 69.9208 62ZM68.4542 61.4034H69.8817C70.5067 61.4034 71.0299 61.2803 71.4513 61.0341C71.8728 60.7879 72.1888 60.4363 72.3995 59.9794C72.6102 59.5225 72.7156 58.978 72.7156 58.3459C72.7132 57.7185 72.609 57.1787 72.4031 56.7266C72.1995 56.2744 71.8964 55.9276 71.494 55.6861C71.0939 55.4446 70.5991 55.3239 70.0096 55.3239H68.4542V61.4034ZM75.9679 62V54.7273H80.1866V55.3239H76.6319V58.0618H79.9629V58.6584H76.6319V61.4034H80.2576V62H75.9679ZM86.036 54.7273H86.8031L88.9586 58.179H89.0225L91.1781 54.7273H91.9451L89.3208 58.8501V62H88.6603V58.8501L86.036 54.7273ZM99.813 58.3636C99.813 59.1212 99.6781 59.7805 99.4082 60.3416C99.1383 60.9003 98.7666 61.3336 98.2931 61.6413C97.822 61.9467 97.2799 62.0994 96.6667 62.0994C96.0536 62.0994 95.5102 61.9467 95.0368 61.6413C94.5656 61.3336 94.1951 60.9003 93.9252 60.3416C93.6577 59.7805 93.524 59.1212 93.524 58.3636C93.524 57.6061 93.6577 56.9479 93.9252 56.3892C94.1951 55.8281 94.5668 55.3949 95.0403 55.0895C95.5138 54.7817 96.0559 54.6278 96.6667 54.6278C97.2799 54.6278 97.822 54.7817 98.2931 55.0895C98.7666 55.3949 99.1383 55.8281 99.4082 56.3892C99.6781 56.9479 99.813 57.6061 99.813 58.3636ZM99.1667 58.3636C99.1667 57.7126 99.0578 57.1551 98.84 56.6911C98.6222 56.2247 98.3251 55.8684 97.9487 55.6222C97.5723 55.3759 97.1449 55.2528 96.6667 55.2528C96.1909 55.2528 95.7647 55.3759 95.3883 55.6222C95.0119 55.8684 94.7136 56.2235 94.4934 56.6875C94.2756 57.1515 94.1667 57.7102 94.1667 58.3636C94.1667 59.0147 94.2756 59.5722 94.4934 60.0362C94.7112 60.5002 95.0083 60.8565 95.3848 61.1051C95.7612 61.3513 96.1885 61.4744 96.6667 61.4744C97.1449 61.4744 97.5723 61.3513 97.9487 61.1051C98.3275 60.8589 98.6258 60.5038 98.8436 60.0398C99.0614 59.5734 99.1691 59.0147 99.1667 58.3636ZM107.266 54.7273H107.93V59.5426C107.93 60.0374 107.814 60.4801 107.582 60.8707C107.35 61.259 107.027 61.5656 106.613 61.7905C106.201 62.013 105.722 62.1243 105.175 62.1243C104.63 62.1243 104.151 62.0118 103.737 61.7869C103.322 61.562 102.999 61.2554 102.767 60.8672C102.535 60.4789 102.419 60.0374 102.419 59.5426V54.7273H103.083V59.4964C103.083 59.8823 103.17 60.2268 103.342 60.5298C103.515 60.8305 103.758 61.0672 104.07 61.2401C104.385 61.4129 104.753 61.4993 105.175 61.4993C105.596 61.4993 105.964 61.4129 106.279 61.2401C106.594 61.0672 106.837 60.8305 107.007 60.5298C107.18 60.2268 107.266 59.8823 107.266 59.4964V54.7273ZM120.369 57H119.701C119.652 56.7514 119.562 56.5218 119.431 56.3111C119.304 56.098 119.143 55.9122 118.949 55.7536C118.754 55.5949 118.534 55.4718 118.288 55.3842C118.042 55.2966 117.775 55.2528 117.489 55.2528C117.03 55.2528 116.611 55.3724 116.232 55.6115C115.855 55.8506 115.554 56.2022 115.326 56.6662C115.101 57.1278 114.989 57.6937 114.989 58.3636C114.989 59.0384 115.101 59.6065 115.326 60.0682C115.554 60.5298 115.855 60.8802 116.232 61.1193C116.611 61.3561 117.03 61.4744 117.489 61.4744C117.775 61.4744 118.042 61.4306 118.288 61.343C118.534 61.2554 118.754 61.1335 118.949 60.9773C119.143 60.8187 119.304 60.6328 119.431 60.4197C119.562 60.2067 119.652 59.9759 119.701 59.7273H120.369C120.31 60.0611 120.199 60.3724 120.035 60.6612C119.874 60.9477 119.668 61.1986 119.417 61.4141C119.169 61.6295 118.882 61.7976 118.558 61.9183C118.234 62.0391 117.877 62.0994 117.489 62.0994C116.878 62.0994 116.336 61.9467 115.863 61.6413C115.389 61.3336 115.017 60.9003 114.748 60.3416C114.48 59.7829 114.346 59.1236 114.346 58.3636C114.346 57.6037 114.48 56.9444 114.748 56.3857C115.017 55.8269 115.389 55.3949 115.863 55.0895C116.336 54.7817 116.878 54.6278 117.489 54.6278C117.877 54.6278 118.234 54.6882 118.558 54.8089C118.882 54.9273 119.169 55.0954 119.417 55.3132C119.668 55.5286 119.874 55.7796 120.035 56.0661C120.199 56.3525 120.31 56.6638 120.369 57ZM122.939 62H122.243L124.889 54.7273H125.599L128.245 62H127.549L125.269 55.5902H125.219L122.939 62ZM123.44 59.2124H127.048V59.8089H123.44V59.2124ZM136.155 54.7273V62H135.509L131.212 55.9098H131.155V62H130.491V54.7273H131.134L135.445 60.8246H135.502V54.7273H136.155ZM148.597 57H147.93C147.88 56.7514 147.79 56.5218 147.66 56.3111C147.532 56.098 147.371 55.9122 147.177 55.7536C146.983 55.5949 146.763 55.4718 146.517 55.3842C146.27 55.2966 146.004 55.2528 145.718 55.2528C145.258 55.2528 144.839 55.3724 144.46 55.6115C144.084 55.8506 143.782 56.2022 143.555 56.6662C143.33 57.1278 143.218 57.6937 143.218 58.3636C143.218 59.0384 143.33 59.6065 143.555 60.0682C143.782 60.5298 144.084 60.8802 144.46 61.1193C144.839 61.3561 145.258 61.4744 145.718 61.4744C146.004 61.4744 146.27 61.4306 146.517 61.343C146.763 61.2554 146.983 61.1335 147.177 60.9773C147.371 60.8187 147.532 60.6328 147.66 60.4197C147.79 60.2067 147.88 59.9759 147.93 59.7273H148.597C148.538 60.0611 148.427 60.3724 148.264 60.6612C148.103 60.9477 147.897 61.1986 147.646 61.4141C147.397 61.6295 147.111 61.7976 146.786 61.9183C146.462 62.0391 146.106 62.0994 145.718 62.0994C145.107 62.0994 144.565 61.9467 144.091 61.6413C143.618 61.3336 143.246 60.9003 142.976 60.3416C142.709 59.7829 142.575 59.1236 142.575 58.3636C142.575 57.6037 142.709 56.9444 142.976 56.3857C143.246 55.8269 143.618 55.3949 144.091 55.0895C144.565 54.7817 145.107 54.6278 145.718 54.6278C146.106 54.6278 146.462 54.6882 146.786 54.8089C147.111 54.9273 147.397 55.0954 147.646 55.3132C147.897 55.5286 148.103 55.7796 148.264 56.0661C148.427 56.3525 148.538 56.6638 148.597 57ZM157.12 58.3636C157.12 59.1212 156.985 59.7805 156.715 60.3416C156.445 60.9003 156.073 61.3336 155.6 61.6413C155.129 61.9467 154.587 62.0994 153.973 62.0994C153.36 62.0994 152.817 61.9467 152.343 61.6413C151.872 61.3336 151.502 60.9003 151.232 60.3416C150.964 59.7805 150.831 59.1212 150.831 58.3636C150.831 57.6061 150.964 56.9479 151.232 56.3892C151.502 55.8281 151.873 55.3949 152.347 55.0895C152.82 54.7817 153.363 54.6278 153.973 54.6278C154.587 54.6278 155.129 54.7817 155.6 55.0895C156.073 55.3949 156.445 55.8281 156.715 56.3892C156.985 56.9479 157.12 57.6061 157.12 58.3636ZM156.473 58.3636C156.473 57.7126 156.364 57.1551 156.147 56.6911C155.929 56.2247 155.632 55.8684 155.255 55.6222C154.879 55.3759 154.452 55.2528 153.973 55.2528C153.498 55.2528 153.071 55.3759 152.695 55.6222C152.319 55.8684 152.02 56.2235 151.8 56.6875C151.582 57.1515 151.473 57.7102 151.473 58.3636C151.473 59.0147 151.582 59.5722 151.8 60.0362C152.018 60.5002 152.315 60.8565 152.691 61.1051C153.068 61.3513 153.495 61.4744 153.973 61.4744C154.452 61.4744 154.879 61.3513 155.255 61.1051C155.634 60.8589 155.932 60.5038 156.15 60.0398C156.368 59.5734 156.476 59.0147 156.473 58.3636ZM164.573 54.7273H165.237V59.5426C165.237 60.0374 165.121 60.4801 164.889 60.8707C164.657 61.259 164.334 61.5656 163.92 61.7905C163.508 62.013 163.028 62.1243 162.481 62.1243C161.937 62.1243 161.457 62.0118 161.043 61.7869C160.629 61.562 160.306 61.2554 160.074 60.8672C159.842 60.4789 159.726 60.0374 159.726 59.5426V54.7273H160.39V59.4964C160.39 59.8823 160.476 60.2268 160.649 60.5298C160.822 60.8305 161.064 61.0672 161.377 61.2401C161.692 61.4129 162.06 61.4993 162.481 61.4993C162.903 61.4993 163.271 61.4129 163.586 61.2401C163.901 61.0672 164.143 60.8305 164.314 60.5298C164.487 60.2268 164.573 59.8823 164.573 59.4964V54.7273ZM173.831 54.7273V62H173.185L168.888 55.9098H168.831V62H168.167V54.7273H168.81L173.121 60.8246H173.178V54.7273H173.831ZM176.324 55.3239V54.7273H181.598V55.3239H179.293V62H178.629V55.3239H176.324ZM193.868 58.3636C193.868 59.1212 193.733 59.7805 193.463 60.3416C193.193 60.9003 192.821 61.3336 192.348 61.6413C191.877 61.9467 191.335 62.0994 190.721 62.0994C190.108 62.0994 189.565 61.9467 189.091 61.6413C188.62 61.3336 188.25 60.9003 187.98 60.3416C187.712 59.7805 187.579 59.1212 187.579 58.3636C187.579 57.6061 187.712 56.9479 187.98 56.3892C188.25 55.8281 188.622 55.3949 189.095 55.0895C189.568 54.7817 190.111 54.6278 190.721 54.6278C191.335 54.6278 191.877 54.7817 192.348 55.0895C192.821 55.3949 193.193 55.8281 193.463 56.3892C193.733 56.9479 193.868 57.6061 193.868 58.3636ZM193.221 58.3636C193.221 57.7126 193.113 57.1551 192.895 56.6911C192.677 56.2247 192.38 55.8684 192.003 55.6222C191.627 55.3759 191.2 55.2528 190.721 55.2528C190.246 55.2528 189.819 55.3759 189.443 55.6222C189.067 55.8684 188.768 56.2235 188.548 56.6875C188.33 57.1515 188.221 57.7102 188.221 58.3636C188.221 59.0147 188.33 59.5722 188.548 60.0362C188.766 60.5002 189.063 60.8565 189.439 61.1051C189.816 61.3513 190.243 61.4744 190.721 61.4744C191.2 61.4744 191.627 61.3513 192.003 61.1051C192.382 60.8589 192.68 60.5038 192.898 60.0398C193.116 59.5734 193.224 59.0147 193.221 58.3636ZM202.138 54.7273V62H201.491L197.195 55.9098H197.138V62H196.474V54.7273H197.116L201.428 60.8246H201.484V54.7273H202.138Z" fill="#646262"/>
<path d="M134.32 47V28.61H127.12V26H144.49V28.61H137.29V47H134.32ZM147.757 47V26H162.577V28.61H150.757V44.39H162.997V47H147.757ZM150.487 37.61V35.06H161.287V37.61H150.487ZM177.216 47.24C175.616 47.24 174.136 46.98 172.776 46.46C171.436 45.92 170.266 45.17 169.266 44.21C168.286 43.23 167.516 42.09 166.956 40.79C166.396 39.49 166.116 38.06 166.116 36.5C166.116 34.94 166.396 33.51 166.956 32.21C167.516 30.91 168.296 29.78 169.296 28.82C170.296 27.84 171.466 27.09 172.806 26.57C174.166 26.03 175.646 25.76 177.246 25.76C178.866 25.76 180.356 26.04 181.716 26.6C183.096 27.14 184.266 27.95 185.226 29.03L183.276 30.92C182.476 30.08 181.576 29.46 180.576 29.06C179.576 28.64 178.506 28.43 177.366 28.43C176.186 28.43 175.086 28.63 174.066 29.03C173.066 29.43 172.196 29.99 171.456 30.71C170.716 31.43 170.136 32.29 169.716 33.29C169.316 34.27 169.116 35.34 169.116 36.5C169.116 37.66 169.316 38.74 169.716 39.74C170.136 40.72 170.716 41.57 171.456 42.29C172.196 43.01 173.066 43.57 174.066 43.97C175.086 44.37 176.186 44.57 177.366 44.57C178.506 44.57 179.576 44.37 180.576 43.97C181.576 43.55 182.476 42.91 183.276 42.05L185.226 43.94C184.266 45.02 183.096 45.84 181.716 46.4C180.356 46.96 178.856 47.24 177.216 47.24ZM204.273 47V26H207.273V47H204.273ZM189.213 47V26H192.213V47H189.213ZM191.913 37.64V35.03H204.543V37.64H191.913Z" fill="#002B53"/>
<path d="M45.9379 11.483C44.8421 10.1767 42.448 10.1175 39.2464 11.0873C41.6561 10.5038 43.4329 10.6425 44.2692 11.6393C46.8587 14.7261 39.6114 25.0691 28.0818 34.7413C16.5522 44.4135 5.10665 49.7518 2.51739 46.6651C1.06423 44.9326 3.57895 39.9381 7.57184 34.6578C2.53728 40.804 0.21625 46.0676 2.07326 48.2815C5.0008 51.7712 17.1934 46.3628 29.3067 36.2011C41.4196 26.0395 48.8657 14.9728 45.9379 11.483Z" fill="#3DAFEF"/>
<path d="M46.6147 11.7602C45.5189 10.4539 43.1248 10.3948 39.9231 11.3646C42.3329 10.781 44.1096 10.9198 44.946 11.9166C47.5355 15.0033 40.2882 25.3463 28.7586 35.0185C17.229 44.6907 5.78344 50.029 3.19417 46.9423C1.74081 45.2098 4.25574 40.2153 8.24863 34.935C3.21407 41.0812 0.893037 46.3448 2.75004 48.5587C5.67759 52.0484 17.8704 46.6401 29.9834 36.4783C42.0962 26.3166 49.5425 15.25 46.6147 11.7602Z" fill="url(#paint0_linear_18_3)"/>
<path d="M5.39468 50.6184C6.51919 50.3948 7.61611 50.1855 8.6976 49.927C9.77897 49.6723 10.843 49.3769 11.8926 49.0368C12.9422 48.6961 13.9774 48.3124 15.003 47.8853C16.0307 47.461 17.0422 46.9883 18.0854 46.5118C17.2821 47.3322 16.3477 48.014 15.3548 48.5933C14.3594 49.17 13.2992 49.639 12.2022 49.993C11.1052 50.3475 9.97143 50.5885 8.82707 50.7041C7.68293 50.8162 6.5265 50.8115 5.39468 50.6184Z" fill="url(#paint1_linear_18_3)"/>
<path d="M46.9705 11.1187C47.5114 11.3166 47.9718 11.7653 48.2577 12.2985C48.5524 12.8318 48.682 13.4594 48.6878 14.064C48.6879 15.2933 48.3143 16.4088 47.9017 17.4806C47.4686 18.5514 46.9161 19.5625 46.2885 20.5123C45.6595 21.4626 44.9643 22.3581 44.1848 23.1946C44.6111 22.1326 45.1192 21.1267 45.6014 20.121C46.0896 19.1183 46.5573 18.1192 46.9694 17.1049C47.3645 16.0884 47.7705 15.0527 47.9007 14.0262C48.0299 13.0153 47.826 11.8979 46.9705 11.1187Z" fill="url(#paint2_linear_18_3)"/>
<path d="M12.6527 43.7056H9.2556V10.097H10.9541C17.7836 10.097 23.3399 15.6532 23.3399 22.4831V33.7508H19.9428V22.4831C19.9428 18.107 16.7998 14.4514 12.6527 13.6551V43.7056Z" fill="#002B53"/>
<path d="M45.9379 11.483C44.8421 10.1767 42.448 10.1175 39.2464 11.0873C41.6561 10.5038 43.4329 10.6425 44.2692 11.6393C46.8587 14.7261 39.6114 25.0691 28.0818 34.7413C16.5522 44.4135 5.10665 49.7518 2.51739 46.6651C1.06423 44.9326 3.57895 39.9381 7.57184 34.6578C2.53728 40.804 0.21625 46.0676 2.07326 48.2815C5.0008 51.7712 17.1934 46.3628 29.3067 36.2011C41.4196 26.0395 48.8657 14.9728 45.9379 11.483Z" fill="#3DAFEF"/>
<path d="M46.6147 11.7602C45.5189 10.4539 43.1248 10.3948 39.9231 11.3646C42.3329 10.781 44.1096 10.9198 44.946 11.9166C47.5355 15.0033 40.2882 25.3463 28.7586 35.0185C17.229 44.6907 5.78344 50.029 3.19417 46.9423C1.74081 45.2098 4.25574 40.2153 8.24863 34.935C3.21407 41.0812 0.893037 46.3448 2.75004 48.5587C5.67759 52.0484 17.8704 46.6401 29.9834 36.4783C42.0962 26.3166 49.5425 15.25 46.6147 11.7602Z" fill="url(#paint3_linear_18_3)"/>
<path d="M5.39468 50.6184C6.51919 50.3948 7.61611 50.1855 8.6976 49.927C9.77897 49.6723 10.843 49.3769 11.8926 49.0368C12.9422 48.6961 13.9774 48.3124 15.003 47.8853C16.0307 47.461 17.0422 46.9883 18.0854 46.5118C17.2821 47.3322 16.3477 48.014 15.3548 48.5933C14.3594 49.17 13.2992 49.639 12.2022 49.993C11.1052 50.3475 9.97143 50.5885 8.82707 50.7041C7.68293 50.8162 6.5265 50.8115 5.39468 50.6184Z" fill="url(#paint4_linear_18_3)"/>
<path d="M46.9705 11.1187C47.5114 11.3166 47.9718 11.7653 48.2577 12.2985C48.5524 12.8318 48.682 13.4594 48.6878 14.064C48.6879 15.2933 48.3143 16.4088 47.9017 17.4806C47.4686 18.5514 46.9161 19.5625 46.2885 20.5123C45.6595 21.4626 44.9643 22.3581 44.1848 23.1946C44.6111 22.1326 45.1192 21.1267 45.6014 20.121C46.0896 19.1183 46.5573 18.1192 46.9694 17.1049C47.3645 16.0884 47.7705 15.0527 47.9007 14.0262C48.0299 13.0153 47.826 11.8979 46.9705 11.1187Z" fill="url(#paint5_linear_18_3)"/>
<path d="M23.3402 68.2334H9.25561V55.2896H12.6527V64.8364H19.9431V52.4843H23.3402V68.2334Z" fill="#002B53"/>
<path d="M12.6527 43.7056H9.2556V10.097H10.9541C17.7836 10.097 23.3399 15.6532 23.3399 22.4831V33.7508H19.9428V22.4831C19.9428 18.107 16.7998 14.4514 12.6527 13.6551V43.7056Z" fill="#002B53"/>
<path d="M41.6499 68.1549L23.5597 50.0643L26.1259 47.4981L41.528 62.9006C44.0593 59.1658 43.6721 54.0302 40.3663 50.7241L33.4375 43.7957L36.0037 41.2295L42.9325 48.1583C48.0917 53.3175 48.0917 61.7121 42.9325 66.8716L41.6499 68.1549Z" fill="#002B53"/>
<defs>
<linearGradient id="paint0_linear_18_3" x1="39.9942" y1="21.3317" x2="9.88091" y2="48.1513" gradientUnits="userSpaceOnUse">
<stop stop-color="#002B53"/>
<stop offset="0.5" stop-color="#3DAFEF"/>
<stop offset="1" stop-color="#002B53"/>
</linearGradient>
<linearGradient id="paint1_linear_18_3" x1="13.3717" y1="44.5812" x2="10.1084" y2="52.549" gradientUnits="userSpaceOnUse">
<stop stop-color="#002B53"/>
<stop offset="0.5" stop-color="#3DAFEF"/>
<stop offset="1" stop-color="#002B53"/>
</linearGradient>
<linearGradient id="paint2_linear_18_3" x1="48.4855" y1="11.7377" x2="43.8494" y2="23.0573" gradientUnits="userSpaceOnUse">
<stop stop-color="#002B53"/>
<stop offset="0.5" stop-color="#3DAFEF"/>
<stop offset="1" stop-color="#002B53"/>
</linearGradient>
<linearGradient id="paint3_linear_18_3" x1="39.9942" y1="21.3317" x2="9.88091" y2="48.1513" gradientUnits="userSpaceOnUse">
<stop stop-color="#002B53"/>
<stop offset="0.5" stop-color="#3DAFEF"/>
<stop offset="1" stop-color="#002B53"/>
</linearGradient>
<linearGradient id="paint4_linear_18_3" x1="13.3717" y1="44.5812" x2="10.1084" y2="52.549" gradientUnits="userSpaceOnUse">
<stop stop-color="#002B53"/>
<stop offset="0.5" stop-color="#3DAFEF"/>
<stop offset="1" stop-color="#002B53"/>
</linearGradient>
<linearGradient id="paint5_linear_18_3" x1="48.4855" y1="11.7377" x2="43.8494" y2="23.0573" gradientUnits="userSpaceOnUse">
<stop stop-color="#002B53"/>
<stop offset="0.5" stop-color="#3DAFEF"/>
<stop offset="1" stop-color="#002B53"/>
</linearGradient>
</defs>
</svg>
